<svg xmlns="http://www.w3.org/2000/svg" xmlns:xlink="http://www.w3.org/1999/xlink" viewBox="0 0 29 29" width="600" height="600" shape-rendering="crispEdges"><defs><linearGradient id="qr-grad" gradientUnits="userSpaceOnUse" x1="0" y1="0" x2="29" y2="29"><stop offset="0%" stop-color="#f97316"/><stop offset="100%" stop-color="#ed4a4a"/></linearGradient></defs><rect x="0" y="0" width="29" height="29" fill="#fff7ed"/><g fill="url(#qr-grad)"><rect x="9.98" y="1.98" width="1.04" height="1.04"/><rect x="11.98" y="1.98" width="1.04" height="1.04"/><rect x="13.98" y="1.98" width="1.04" height="1.04"/><rect x="14.98" y="1.98" width="1.04" height="1.04"/><rect x="15.98" y="1.98" width="1.04" height="1.04"/><rect x="17.98" y="1.98" width="1.04" height="1.04"/><rect x="10.98" y="2.98" width="1.04" height="1.04"/><rect x="14.98" y="2.98" width="1.04" height="1.04"/><rect x="15.98" y="2.98" width="1.04" height="1.04"/><rect x="16.98" y="2.98" width="1.04" height="1.04"/><rect x="11.98" y="3.98" width="1.04" height="1.04"/><rect x="12.98" y="3.98" width="1.04" height="1.04"/><rect x="15.98" y="3.98" width="1.04" height="1.04"/><rect x="9.98" y="4.98" width="1.04" height="1.04"/><rect x="12.98" y="4.98" width="1.04" height="1.04"/><rect x="17.98" y="4.98" width="1.04" height="1.04"/><rect x="9.98" y="5.98" width="1.04" height="1.04"/><rect x="10.98" y="5.98" width="1.04" height="1.04"/><rect x="11.98" y="5.98" width="1.04" height="1.04"/><rect x="12.98" y="5.98" width="1.04" height="1.04"/><rect x="13.98" y="5.98" width="1.04" height="1.04"/><rect x="9.98" y="6.98" width="1.04" height="1.04"/><rect x="10.98" y="6.98" width="1.04" height="1.04"/><rect x="13.98" y="6.98" width="1.04" height="1.04"/><rect x="17.98" y="6.98" width="1.04" height="1.04"/><rect x="9.98" y="7.98" width="1.04" height="1.04"/><rect x="11.98" y="7.98" width="1.04" height="1.04"/><rect x="13.98" y="7.98" width="1.04" height="1.04"/><rect x="15.98" y="7.98" width="1.04" height="1.04"/><rect x="17.98" y="7.98" width="1.04" height="1.04"/><rect x="9.98" y="8.98" width="1.04" height="1.04"/><rect x="10.98" y="8.98" width="1.04" height="1.04"/><rect x="11.98" y="8.98" width="1.04" height="1.04"/><rect x="14.98" y="8.98" width="1.04" height="1.04"/><rect x="16.98" y="8.98" width="1.04" height="1.04"/><rect x="17.98" y="8.98" width="1.04" height="1.04"/><rect x="1.98" y="9.98" width="1.04" height="1.04"/><rect x="5.98" y="9.98" width="1.04" height="1.04"/><rect x="7.98" y="9.98" width="1.04" height="1.04"/><rect x="8.98" y="9.98" width="1.04" height="1.04"/><rect x="9.98" y="9.98" width="1.04" height="1.04"/><rect x="13.98" y="9.98" width="1.04" height="1.04"/><rect x="14.98" y="9.98" width="1.04" height="1.04"/><rect x="16.98" y="9.98" width="1.04" height="1.04"/><rect x="17.98" y="9.98" width="1.04" height="1.04"/><rect x="18.98" y="9.98" width="1.04" height="1.04"/><rect x="19.98" y="9.98" width="1.04" height="1.04"/><rect x="20.98" y="9.98" width="1.04" height="1.04"/><rect x="21.98" y="9.98" width="1.04" height="1.04"/><rect x="22.98" y="9.98" width="1.04" height="1.04"/><rect x="25.98" y="9.98" width="1.04" height="1.04"/><rect x="2.98" y="10.98" width="1.04" height="1.04"/><rect x="3.98" y="10.98" width="1.04" height="1.04"/><rect x="4.98" y="10.98" width="1.04" height="1.04"/><rect x="6.98" y="10.98" width="1.04" height="1.04"/><rect x="8.98" y="10.98" width="1.04" height="1.04"/><rect x="12.98" y="10.98" width="1.04" height="1.04"/><rect x="14.98" y="10.98" width="1.04" height="1.04"/><rect x="15.98" y="10.98" width="1.04" height="1.04"/><rect x="16.98" y="10.98" width="1.04" height="1.04"/><rect x="17.98" y="10.98" width="1.04" height="1.04"/><rect x="21.98" y="10.98" width="1.04" height="1.04"/><rect x="24.98" y="10.98" width="1.04" height="1.04"/><rect x="1.98" y="11.98" width="1.04" height="1.04"/><rect x="2.98" y="11.98" width="1.04" height="1.04"/><rect x="3.98" y="11.98" width="1.04" height="1.04"/><rect x="4.98" y="11.98" width="1.04" height="1.04"/><rect x="7.98" y="11.98" width="1.04" height="1.04"/><rect x="9.98" y="11.98" width="1.04" height="1.04"/><rect x="10.98" y="11.98" width="1.04" height="1.04"/><rect x="16.98" y="11.98" width="1.04" height="1.04"/><rect x="20.98" y="11.98" width="1.04" height="1.04"/><rect x="22.98" y="11.98" width="1.04" height="1.04"/><rect x="23.98" y="11.98" width="1.04" height="1.04"/><rect x="1.98" y="12.98" width="1.04" height="1.04"/><rect x="4.98" y="12.98" width="1.04" height="1.04"/><rect x="5.98" y="12.98" width="1.04" height="1.04"/><rect x="10.98" y="12.98" width="1.04" height="1.04"/><rect x="11.98" y="12.98" width="1.04" height="1.04"/><rect x="12.98" y="12.98" width="1.04" height="1.04"/><rect x="13.98" y="12.98" width="1.04" height="1.04"/><rect x="15.98" y="12.98" width="1.04" height="1.04"/><rect x="16.98" y="12.98" width="1.04" height="1.04"/><rect x="18.98" y="12.98" width="1.04" height="1.04"/><rect x="22.98" y="12.98" width="1.04" height="1.04"/><rect x="23.98" y="12.98" width="1.04" height="1.04"/><rect x="24.98" y="12.98" width="1.04" height="1.04"/><rect x="1.98" y="13.98" width="1.04" height="1.04"/><rect x="3.98" y="13.98" width="1.04" height="1.04"/><rect x="5.98" y="13.98" width="1.04" height="1.04"/><rect x="6.98" y="13.98" width="1.04" height="1.04"/><rect x="7.98" y="13.98" width="1.04" height="1.04"/><rect x="9.98" y="13.98" width="1.04" height="1.04"/><rect x="11.98" y="13.98" width="1.04" height="1.04"/><rect x="12.98" y="13.98" width="1.04" height="1.04"/><rect x="14.98" y="13.98" width="1.04" height="1.04"/><rect x="15.98" y="13.98" width="1.04" height="1.04"/><rect x="16.98" y="13.98" width="1.04" height="1.04"/><rect x="18.98" y="13.98" width="1.04" height="1.04"/><rect x="19.98" y="13.98" width="1.04" height="1.04"/><rect x="20.98" y="13.98" width="1.04" height="1.04"/><rect x="23.98" y="13.98" width="1.04" height="1.04"/><rect x="25.98" y="13.98" width="1.04" height="1.04"/><rect x="1.98" y="14.98" width="1.04" height="1.04"/><rect x="2.98" y="14.98" width="1.04" height="1.04"/><rect x="8.98" y="14.98" width="1.04" height="1.04"/><rect x="11.98" y="14.98" width="1.04" height="1.04"/><rect x="13.98" y="14.98" width="1.04" height="1.04"/><rect x="16.98" y="14.98" width="1.04" height="1.04"/><rect x="17.98" y="14.98" width="1.04" height="1.04"/><rect x="21.98" y="14.98" width="1.04" height="1.04"/><rect x="22.98" y="14.98" width="1.04" height="1.04"/><rect x="23.98" y="14.98" width="1.04" height="1.04"/><rect x="24.98" y="14.98" width="1.04" height="1.04"/><rect x="7.98" y="15.98" width="1.04" height="1.04"/><rect x="9.98" y="15.98" width="1.04" height="1.04"/><rect x="10.98" y="15.98" width="1.04" height="1.04"/><rect x="12.98" y="15.98" width="1.04" height="1.04"/><rect x="13.98" y="15.98" width="1.04" height="1.04"/><rect x="14.98" y="15.98" width="1.04" height="1.04"/><rect x="15.98" y="15.98" width="1.04" height="1.04"/><rect x="16.98" y="15.98" width="1.04" height="1.04"/><rect x="17.98" y="15.98" width="1.04" height="1.04"/><rect x="18.98" y="15.98" width="1.04" height="1.04"/><rect x="20.98" y="15.98" width="1.04" height="1.04"/><rect x="22.98" y="15.98" width="1.04" height="1.04"/><rect x="3.98" y="16.98" width="1.04" height="1.04"/><rect x="5.98" y="16.98" width="1.04" height="1.04"/><rect x="6.98" y="16.98" width="1.04" height="1.04"/><rect x="9.98" y="16.98" width="1.04" height="1.04"/><rect x="12.98" y="16.98" width="1.04" height="1.04"/><rect x="14.98" y="16.98" width="1.04" height="1.04"/><rect x="20.98" y="16.98" width="1.04" height="1.04"/><rect x="21.98" y="16.98" width="1.04" height="1.04"/><rect x="23.98" y="16.98" width="1.04" height="1.04"/><rect x="1.98" y="17.98" width="1.04" height="1.04"/><rect x="2.98" y="17.98" width="1.04" height="1.04"/><rect x="4.98" y="17.98" width="1.04" height="1.04"/><rect x="5.98" y="17.98" width="1.04" height="1.04"/><rect x="6.98" y="17.98" width="1.04" height="1.04"/><rect x="7.98" y="17.98" width="1.04" height="1.04"/><rect x="8.98" y="17.98" width="1.04" height="1.04"/><rect x="9.98" y="17.98" width="1.04" height="1.04"/><rect x="11.98" y="17.98" width="1.04" height="1.04"/><rect x="13.98" y="17.98" width="1.04" height="1.04"/><rect x="14.98" y="17.98" width="1.04" height="1.04"/><rect x="16.98" y="17.98" width="1.04" height="1.04"/><rect x="17.98" y="17.98" width="1.04" height="1.04"/><rect x="18.98" y="17.98" width="1.04" height="1.04"/><rect x="19.98" y="17.98" width="1.04" height="1.04"/><rect x="20.98" y="17.98" width="1.04" height="1.04"/><rect x="21.98" y="17.98" width="1.04" height="1.04"/><rect x="23.98" y="17.98" width="1.04" height="1.04"/><rect x="25.98" y="17.98" width="1.04" height="1.04"/><rect x="9.98" y="18.98" width="1.04" height="1.04"/><rect x="11.98" y="18.98" width="1.04" height="1.04"/><rect x="14.98" y="18.98" width="1.04" height="1.04"/><rect x="15.98" y="18.98" width="1.04" height="1.04"/><rect x="17.98" y="18.98" width="1.04" height="1.04"/><rect x="21.98" y="18.98" width="1.04" height="1.04"/><rect x="23.98" y="18.98" width="1.04" height="1.04"/><rect x="9.98" y="19.98" width="1.04" height="1.04"/><rect x="17.98" y="19.98" width="1.04" height="1.04"/><rect x="19.98" y="19.98" width="1.04" height="1.04"/><rect x="21.98" y="19.98" width="1.04" height="1.04"/><rect x="22.98" y="19.98" width="1.04" height="1.04"/><rect x="23.98" y="19.98" width="1.04" height="1.04"/><rect x="10.98" y="20.98" width="1.04" height="1.04"/><rect x="11.98" y="20.98" width="1.04" height="1.04"/><rect x="13.98" y="20.98" width="1.04" height="1.04"/><rect x="15.98" y="20.98" width="1.04" height="1.04"/><rect x="16.98" y="20.98" width="1.04" height="1.04"/><rect x="17.98" y="20.98" width="1.04" height="1.04"/><rect x="21.98" y="20.98" width="1.04" height="1.04"/><rect x="23.98" y="20.98" width="1.04" height="1.04"/><rect x="24.98" y="20.98" width="1.04" height="1.04"/><rect x="9.98" y="21.98" width="1.04" height="1.04"/><rect x="12.98" y="21.98" width="1.04" height="1.04"/><rect x="14.98" y="21.98" width="1.04" height="1.04"/><rect x="15.98" y="21.98" width="1.04" height="1.04"/><rect x="17.98" y="21.98" width="1.04" height="1.04"/><rect x="18.98" y="21.98" width="1.04" height="1.04"/><rect x="19.98" y="21.98" width="1.04" height="1.04"/><rect x="20.98" y="21.98" width="1.04" height="1.04"/><rect x="21.98" y="21.98" width="1.04" height="1.04"/><rect x="23.98" y="21.98" width="1.04" height="1.04"/><rect x="25.98" y="21.98" width="1.04" height="1.04"/><rect x="11.98" y="22.98" width="1.04" height="1.04"/><rect x="13.98" y="22.98" width="1.04" height="1.04"/><rect x="16.98" y="22.98" width="1.04" height="1.04"/><rect x="17.98" y="22.98" width="1.04" height="1.04"/><rect x="18.98" y="22.98" width="1.04" height="1.04"/><rect x="19.98" y="22.98" width="1.04" height="1.04"/><rect x="20.98" y="22.98" width="1.04" height="1.04"/><rect x="24.98" y="22.98" width="1.04" height="1.04"/><rect x="25.98" y="22.98" width="1.04" height="1.04"/><rect x="10.98" y="23.98" width="1.04" height="1.04"/><rect x="12.98" y="23.98" width="1.04" height="1.04"/><rect x="13.98" y="23.98" width="1.04" height="1.04"/><rect x="14.98" y="23.98" width="1.04" height="1.04"/><rect x="15.98" y="23.98" width="1.04" height="1.04"/><rect x="17.98" y="23.98" width="1.04" height="1.04"/><rect x="18.98" y="23.98" width="1.04" height="1.04"/><rect x="19.98" y="23.98" width="1.04" height="1.04"/><rect x="20.98" y="23.98" width="1.04" height="1.04"/><rect x="23.98" y="23.98" width="1.04" height="1.04"/><rect x="24.98" y="23.98" width="1.04" height="1.04"/><rect x="10.98" y="24.98" width="1.04" height="1.04"/><rect x="12.98" y="24.98" width="1.04" height="1.04"/><rect x="14.98" y="24.98" width="1.04" height="1.04"/><rect x="16.98" y="24.98" width="1.04" height="1.04"/><rect x="19.98" y="24.98" width="1.04" height="1.04"/><rect x="21.98" y="24.98" width="1.04" height="1.04"/><rect x="23.98" y="24.98" width="1.04" height="1.04"/><rect x="24.98" y="24.98" width="1.04" height="1.04"/><rect x="9.98" y="25.98" width="1.04" height="1.04"/><rect x="11.98" y="25.98" width="1.04" height="1.04"/><rect x="13.98" y="25.98" width="1.04" height="1.04"/><rect x="14.98" y="25.98" width="1.04" height="1.04"/><rect x="16.98" y="25.98" width="1.04" height="1.04"/><rect x="23.98" y="25.98" width="1.04" height="1.04"/><rect x="24.98" y="25.98" width="1.04" height="1.04"/><rect x="25.98" y="25.98" width="1.04" height="1.04"/></g><rect x="2" y="2" width="7" height="7" fill="#c2410c"/><rect x="3" y="3" width="5" height="5" fill="#fff7ed"/><rect x="4" y="4" width="3" height="3" fill="#c2410c"/><rect x="20" y="2" width="7" height="7" fill="#c2410c"/><rect x="21" y="3" width="5" height="5" fill="#fff7ed"/><rect x="22" y="4" width="3" height="3" fill="#c2410c"/><rect x="2" y="20" width="7" height="7" fill="#c2410c"/><rect x="3" y="21" width="5" height="5" fill="#fff7ed"/><rect x="4" y="22" width="3" height="3" fill="#c2410c"/></svg>